<svg xmlns="http://www.w3.org/2000/svg" viewBox="0 0 445 428"><defs><style>.cls-1,.cls-2{fill:#fff;isolation:isolate;}.cls-1{opacity:0.03;}.cls-2{opacity:0.02;}</style></defs><title>corner_splash_1</title><g id="Layer_2" data-name="Layer 2"><g id="Layer_1-2" data-name="Layer 1"><path class="cls-1" d="M140,185c26.27-11.19,29.45-4.9,71-19,25.75-8.73,62.48-21.2,99-50,26.76-21.11,42.23-42.17,70-80,9.11-12.41,17-24.84,23.73-36H0V340.62A456.76,456.76,0,0,1,44,271C70.73,236.27,95.66,203.89,140,185Z"/><path class="cls-2" d="M403.73,0C397,11.16,389.11,23.59,380,36c-27.77,37.83-43.24,58.89-70,80-36.52,28.8-73.25,41.27-99,50-41.55,14.1-44.73,7.81-71,19-44.34,18.89-69.27,51.27-96,86A456.76,456.76,0,0,0,0,340.62V428A456.78,456.78,0,0,1,70,297c26.73-34.73,51.66-67.11,96-86,26.27-11.19,29.45-4.9,71-19,25.75-8.73,62.48-21.2,99-50,26.76-21.11,42.23-42.17,70-80,17.29-23.55,30.24-47.2,39-62Z"/></g></g></svg>