<svg xmlns="http://www.w3.org/2000/svg" viewBox="0 0 1270.1 258.2" fill="#fafafa">
<path d="M73.8 239.7a18.4 18.4 0 0 0-18.5-18.4H18.4a18.4 18.4 0 0 0 0 36.9h37a18.4 18.4 0 0 0 18.4-18.5zM127 73.8H90.2a18.4 18.4 0 0 0 0 36.8H127a18.4 18.4 0 1 0 0-36.8zM161.9 147.5H53.3a18.4 18.4 0 1 0 0 36.9h108.6a18.4 18.4 0 1 0 0-36.9z"/>
<path d="M230.5 0H125a18.4 18.4 0 0 0 0 36.9h118.8a18.4 18.4 0 1 1 0 36.9h-47.1a18.4 18.4 0 0 0 0 36.8h79.9a18.4 18.4 0 1 1 0 37h-43a18.4 18.4 0 0 0 0 36.8h10.2a18.4 18.4 0 1 1 0 36.9h-47.1a18.4 18.4 0 0 0 0 36.9h33.8a128 128 0 0 0 128-128.1v-2A128 128 0 0 0 230.6 0z"/>
<circle cx="127" cy="239.7" r="18.4"/>
<path d="M462 138.5q0-13.1 4-22.8a43.4 43.4 0 0 1 11-16 45.2 45.2 0 0 1 16.4-9.4 65.2 65.2 0 0 1 20.3-3 42.7 42.7 0 0 1 7.8.7 31 31 0 0 1 6.1 1.6v-32a54 54 0 0 1 6.4-1.4 56.8 56.8 0 0 1 9-.7 47 47 0 0 1 7.8.6 13.4 13.4 0 0 1 5.8 2.4 10.8 10.8 0 0 1 3.6 4.9 22.7 22.7 0 0 1 1.2 8v94q0 9.4-8.7 14.9a60.5 60.5 0 0 1-15 6.7 77.4 77.4 0 0 1-44.1-.7 46.9 46.9 0 0 1-17.3-10.3 44.3 44.3 0 0 1-10.7-16.2 58.4 58.4 0 0 1-3.7-21.3zm56.3-24.8q-10.7 0-16.5 6.1t-5.7 18.7q0 12.3 5.3 18.5t15.5 6.3a18 18 0 0 0 6.5-1.1 14.6 14.6 0 0 0 4.4-2.5v-43.6a18.2 18.2 0 0 0-9.5-2.4zM622 87.3a81.6 81.6 0 0 1 19.6 2.2 43.8 43.8 0 0 1 15 6.6 30 30 0 0 1 9.7 11.3 36.2 36.2 0 0 1 3.4 16.2V168a12.3 12.3 0 0 1-2.9 8.4 28.8 28.8 0 0 1-6.8 5.7q-13 7.7-36.4 7.7a83 83 0 0 1-19-2 44.9 44.9 0 0 1-14.4-6 27.3 27.3 0 0 1-9.3-10.1 30 30 0 0 1-3.3-14.3q0-13.7 8.1-21t25.2-9.1l26-2.8v-1.3a8.5 8.5 0 0 0-5-8.2q-5-2.5-14.6-2.5a67.6 67.6 0 0 0-14.7 1.6 78 78 0 0 0-12.9 4 13.7 13.7 0 0 1-4.3-5.5 17.2 17.2 0 0 1-1.8-7.6 12.7 12.7 0 0 1 2.5-8.3 19.2 19.2 0 0 1 7.6-5.2 59.7 59.7 0 0 1 13.6-3.2 117.8 117.8 0 0 1 14.8-1zm1.6 78a44.3 44.3 0 0 0 7.5-.7 18.1 18.1 0 0 0 6-1.9v-15.9L623 148a22.1 22.1 0 0 0-9.2 2.4 6.4 6.4 0 0 0-3.5 6 7.9 7.9 0 0 0 3 6.4q3.1 2.5 10.4 2.5zM744.7 113.9a28 28 0 0 0-9.4 1.6 21.8 21.8 0 0 0-7.8 4.6 22.8 22.8 0 0 0-5.2 7.7 26.7 26.7 0 0 0-2 10.7q0 12.3 7 18.4a25.2 25.2 0 0 0 17.1 6.2 34.1 34.1 0 0 0 10.4-1.4 63.7 63.7 0 0 0 7.7-3 20.6 20.6 0 0 1 6 6 14.9 14.9 0 0 1 2 7.9q0 8.1-7.7 12.6t-21.5 4.5a66 66 0 0 1-22.6-3.7 51 51 0 0 1-17.4-10.3 45.6 45.6 0 0 1-11.2-16 52.2 52.2 0 0 1-4-20.7q0-13 4.3-22.9A44.3 44.3 0 0 1 702 100a49.1 49.1 0 0 1 17-9.5 64.5 64.5 0 0 1 20.3-3.2q14.3 0 22 5.2t7.8 13.3a14.5 14.5 0 0 1-1.8 7 24.6 24.6 0 0 1-4.2 5.6 64.8 64.8 0 0 0-8.1-3 34.5 34.5 0 0 0-10.3-1.5zM821 153.6q0 5.1 3.4 7.3t9.2 2.2a39.6 39.6 0 0 0 6.1-.5 34.4 34.4 0 0 0 5.6-1.3 24.4 24.4 0 0 1 3 4.9 14.8 14.8 0 0 1 1.4 6.4 15.3 15.3 0 0 1-5.7 12.3q-5.7 4.8-20 4.8-17.4 0-26.8-8t-9.5-25.8V71q2.2-.6 6.3-1.3a51.4 51.4 0 0 1 8.6-.7q8.8 0 13.6 3t4.9 13v12.8h26a34.2 34.2 0 0 1 2.3 5.5 22.8 22.8 0 0 1 1 7.2q0 7-3 10a11.1 11.1 0 0 1-8.3 3h-18zM866.7 91.7a45.4 45.4 0 0 1 6.3-1.2 63.8 63.8 0 0 1 8.8-.6 46.6 46.6 0 0 1 7.9.6 13.3 13.3 0 0 1 5.8 2.3 11.5 11.5 0 0 1 3.7 4.9 21 21 0 0 1 1.3 8v42.7q0 8.1 4 11.6t11.5 3.5a28.7 28.7 0 0 0 7.4-.8 25.4 25.4 0 0 0 4.5-1.6V91.7a45.4 45.4 0 0 1 6.3-1.2 63.7 63.7 0 0 1 8.8-.6 46.7 46.7 0 0 1 7.8.6 13.3 13.3 0 0 1 5.9 2.3 11.5 11.5 0 0 1 3.6 4.9 21 21 0 0 1 1.3 8V166q0 10-8.3 14.9a54.5 54.5 0 0 1-16.6 6.7 90.7 90.7 0 0 1-20.9 2.2 77.4 77.4 0 0 1-19.8-2.3 44 44 0 0 1-15.6-7.3 32.8 32.8 0 0 1-10.1-12.8q-3.6-7.9-3.6-19zM1016 186.5a46.6 46.6 0 0 1-6.3 1.2 63.8 63.8 0 0 1-8.9.6 46.6 46.6 0 0 1-7.8-.6 13.3 13.3 0 0 1-5.9-2.4 11.4 11.4 0 0 1-3.6-4.9 21 21 0 0 1-1.3-8V113a17 17 0 0 1 1.7-7.9 18.5 18.5 0 0 1 4.8-5.8 35 35 0 0 1 7.9-4.7 81.5 81.5 0 0 1 10-3.6 85.5 85.5 0 0 1 11-2.5 75 75 0 0 1 11.6-1q9.5 0 15 3.8t5.6 12a19.2 19.2 0 0 1-.8 5.4 25 25 0 0 1-2 4.9q-4.1 0-8.5.4t-8.5 1.2q-4.2.8-7.9 1.7a34.5 34.5 0 0 0-6.2 2zM1122.9 125.6q0-6.2-3.5-9t-9.4-2.9a31.6 31.6 0 0 0-7.9 1 19.9 19.9 0 0 0-6.6 3v68.8a46.6 46.6 0 0 1-6.3 1.2 63.8 63.8 0 0 1-8.8.6 46.6 46.6 0 0 1-7.8-.6 13.3 13.3 0 0 1-5.9-2.3 11.4 11.4 0 0 1-3.7-4.9 21 21 0 0 1-1.2-8v-59.6a15.3 15.3 0 0 1 2.2-8.8 24 24 0 0 1 6.3-6.1 56.9 56.9 0 0 1 17-7.7 81.1 81.1 0 0 1 22.7-3q22.4 0 34.5 9.8t12.1 27.3v62a46.7 46.7 0 0 1-6.2 1.3 63.8 63.8 0 0 1-8.9.6 46.6 46.6 0 0 1-7.8-.6 13.3 13.3 0 0 1-5.9-2.4 11.5 11.5 0 0 1-3.6-4.9 21 21 0 0 1-1.3-8zM1228.4 189.9a69.6 69.6 0 0 1-21.7-3.3 49.2 49.2 0 0 1-17.5-9.8 45.5 45.5 0 0 1-11.7-16.5q-4.2-10-4.2-23.2 0-13 4.2-22.5a43.6 43.6 0 0 1 27.1-24.4 59.3 59.3 0 0 1 18.3-2.9 55.2 55.2 0 0 1 19.1 3.2 46.1 46.1 0 0 1 14.9 8.7 38.9 38.9 0 0 1 9.7 13.3 40.8 40.8 0 0 1 3.5 16.8q0 6.8-3.8 10.4t-10.5 4.5l-49 7.4a16.5 16.5 0 0 0 9 9.8 35 35 0 0 0 15.4 3.3 55.4 55.4 0 0 0 15.4-2.1 48.8 48.8 0 0 0 11.8-4.9 16.7 16.7 0 0 1 5.3 5.6 14.2 14.2 0 0 1 2.2 7.5q0 9-8.3 13.3a44.1 44.1 0 0 1-14.3 4.6 100.6 100.6 0 0 1-14.9 1.2zm-5.5-78a19.6 19.6 0 0 0-8.3 1.6 16.6 16.6 0 0 0-5.6 4 17 17 0 0 0-3.3 5.6 22.7 22.7 0 0 0-1.3 6.2l34-5.5a15 15 0 0 0-4.4-8q-3.8-4-11.1-4z"/>
</svg>
