<svg xmlns="http://www.w3.org/2000/svg" xmlns:xlink="http://www.w3.org/1999/xlink" viewBox="0 0 694 734.79">
<defs>
    <filter id='inset' x='-50%' y='-50%' width='200%' height='200%'>
    <feFlood fill-color="black"/>
    <feComposite in2="SourceAlpha" operator="out"/>
    <feGaussianBlur stdDeviation='0'/>
    <feOffset dx='0' dy='7' result='offsetblur'/>
    <feFlood flood-color='#a4e0ef' result='color' opacity="0.3" />
    <feComposite in2='offsetblur' operator='in'/>
    <feComposite in2='SourceAlpha' operator='in' />
    <feMerge>
      <feMergeNode in='SourceGraphic'/>
      <feMergeNode/>
    </feMerge>
  </filter>
  <filter id="glow" x="-250%" y="-250%" width="500%" height="500%">
    <feFlood result="flood" flood-color="#189993" flood-opacity="0.25"></feFlood>
    <feComposite in="flood" result="mask" in2="SourceGraphic" operator="in"></feComposite>
    <feMorphology in="mask" result="dilated" operator="dilate" radius="10"></feMorphology>
    <feGaussianBlur in="dilated" result="blurred" stdDeviation="10"></feGaussianBlur>
    <feMerge>
      <feMergeNode in="blurred"></feMergeNode>
      <feMergeNode in="SourceGraphic"></feMergeNode>
    </feMerge>
  </filter>
  <style>.cls-1{fill:#fff;opacity:0.03;}.cls-2{fill:#24243f;}.cls-3{fill:url(#linear-gradient);}.cls-4{fill:url(#linear-gradient-2);}.cls-5{fill:url(#linear-gradient-3);}.cls-6{fill:url(#linear-gradient-4);}.cls-7{fill:url(#linear-gradient-5);}</style><linearGradient id="linear-gradient" x1="162.15" y1="607.03" x2="162.15" y2="528.33" gradientUnits="userSpaceOnUse"><stop offset="0" stop-color="#3dbcb3"/><stop offset="0.88" stop-color="#45d2cb"/></linearGradient><linearGradient id="linear-gradient-2" x1="167.31" y1="360.74" x2="167.31" y2="282.05" xlink:href="#linear-gradient"/><linearGradient id="linear-gradient-3" x1="214.97" y1="484.55" x2="214.97" y2="360.69" xlink:href="#linear-gradient"/><linearGradient id="linear-gradient-4" x1="342.21" y1="494.74" x2="342.21" y2="101.09" xlink:href="#linear-gradient"/><linearGradient id="linear-gradient-5" x1="292.14" y1="538.66" x2="292.14" y2="483.2" xlink:href="#linear-gradient"/><symbol id="splash" data-name="splash" viewBox="0 0 618.57 678.69"><path id="splash-3" data-name="splash" class="cls-1" d="M583.12,41.76C561.31,24.64,545.53,32.31,433,15.5,352.31,3.46,361.79-.28,338,0,280.58.73,273.37,22,152.89,63.3,98.58,81.93,81.33,84,57.29,105c-8.65,7.56-44.39,38.81-50.5,87.53-3.13,24.95,2.85,45.13,14.81,85.51,10.06,33.95,17.38,45,22.22,60.6,15.43,49.61-18.23,71.56-33.66,148.79C.31,536.73-7.75,577.07,12.85,614c23.59,42.33,75.81,64.22,119.84,64.63,59.73.57,97.4-38.45,153.51-81.47,140-107.3,171.49-64,235.65-133.31,79-85.31,88.13-193.8,92.91-250.46C620.13,149.83,626.39,75.74,583.12,41.76Z"/></symbol></defs><title>logo_3d</title><g id="Layer_2" data-name="Layer 2"><g id="Layer_1-2" data-name="Layer 1"><use width="618.57" height="678.69" transform="scale(1.12 1.08)" xlink:href="#splash"/><use width="618.57" height="678.69" transform="translate(42.59 38.33) scale(0.96)" xlink:href="#splash"/><g id="Layer_2-2" data-name="Layer 2"><g id="Layer_2-2-2" data-name="Layer 2-2"><g id="sides"><path class="cls-2" d="M201,581.21l-53.19,23.23A30.59,30.59,0,0,1,135.58,607c-11.07,0-21.67-6-26.62-16.09a26.34,26.34,0,0,1-2.7-11.62v19.12a26.34,26.34,0,0,0,2.7,11.62c5,10.13,15.54,16.09,26.62,16.09a30.59,30.59,0,0,0,12.26-2.58L201,600.33a27.66,27.66,0,0,0,17-25.17V556A27.66,27.66,0,0,1,201,581.21Z"/><path class="cls-2" d="M141.89,257.27a30.6,30.6,0,0,0,12.26-2.58l171.36-74.81a30.59,30.59,0,0,1,12.26-2.58c11.07,0,21.66,6,26.61,16.09A26.32,26.32,0,0,1,367.1,205V185.88a26.32,26.32,0,0,0-2.71-11.62c-4.94-10.13-15.54-16.09-26.61-16.09a30.59,30.59,0,0,0-12.26,2.58L154.15,235.58a30.6,30.6,0,0,1-12.26,2.58c-11.07,0-21.67-6-26.61-16.09a26.32,26.32,0,0,1-2.71-11.62v19.12a26.32,26.32,0,0,0,2.71,11.62C120.22,251.29,130.82,257.27,141.89,257.27Z"/><path class="cls-2" d="M294.42,293.57c-11.06,0-21.66-6-26.6-16.08a26.34,26.34,0,0,1-2.71-11.62V285a26.34,26.34,0,0,0,2.71,11.62c5,10.12,15.54,16.08,26.6,16.08a30.58,30.58,0,0,0,12.26-2.58L421.93,259.8a30.6,30.6,0,0,1,12.26-2.58c11.07,0,21.67,6,26.62,16.1a26.33,26.33,0,0,1,2.7,11.62V265.82a26.33,26.33,0,0,0-2.7-11.62c-5-10.13-15.55-16.1-26.62-16.1a30.6,30.6,0,0,0-12.26,2.58L306.68,291A30.58,30.58,0,0,1,294.42,293.57Z"/><path class="cls-2" d="M114.15,363.7c5,10.12,15.54,16.08,26.61,16.08A30.6,30.6,0,0,0,153,377.2L206.16,354c10.71-4.68,17-14.7,17-25.17V309.74c0,10.47-6.31,20.48-17,25.17L153,358.14a30.6,30.6,0,0,1-12.26,2.58c-11.07,0-21.66-6-26.61-16.08A26.33,26.33,0,0,1,111.44,333v19.12A26.33,26.33,0,0,0,114.15,363.7Z"/><path class="cls-2" d="M436,359.35a30.6,30.6,0,0,0-12.26,2.58L409,368.39A30.59,30.59,0,0,1,396.75,371c-11.07,0-21.67-6-26.62-16.09a26.34,26.34,0,0,1-2.7-11.62v19.12a26.34,26.34,0,0,0,2.7,11.62c5,10.13,15.54,16.09,26.62,16.09A30.59,30.59,0,0,0,409,387.51l14.77-6.45A30.6,30.6,0,0,1,436,378.47c11.07,0,21.67,6,26.62,16.09a26.33,26.33,0,0,1,2.7,11.62V387a26.33,26.33,0,0,0-2.7-11.62C457.72,365.31,447.12,359.35,436,359.35Z"/><path class="cls-2" d="M305.56,413.54,148.94,481.95a30.61,30.61,0,0,1-12.26,2.58c-11.06-.08-21.67-6-26.61-16.15a26.33,26.33,0,0,1-2.7-11.62v19.12a26.33,26.33,0,0,0,2.7,11.62c5,10.13,15.54,16.09,26.61,16.09A30.61,30.61,0,0,0,148.94,501L305.56,432.6c10.71-4.68,17-14.7,17-25.17V388.37A27.65,27.65,0,0,1,305.56,413.54Z"/><path class="cls-2" d="M453.67,470.89l-48.77,21.3a30.61,30.61,0,0,1-12.26,2.55c-11.06,0-21.65-6-26.6-16.08A26.33,26.33,0,0,1,363.33,467v19.12A26.33,26.33,0,0,0,366,497.78c5,10.12,15.54,16.08,26.6,16.08a30.61,30.61,0,0,0,12.26-2.55L453.67,490c74.38-32.48,118.18-102,118.18-174.73V296.16C571.86,368.85,528.05,438.42,453.67,470.89Z"/><path class="cls-2" d="M304.45,536.07a30.62,30.62,0,0,1-12.26,2.58c-11.07,0-21.67-6-26.61-16.09a26.34,26.34,0,0,1-2.7-11.62v19.12a26.34,26.34,0,0,0,2.7,11.62c5,10.13,15.54,16.09,26.61,16.09a30.62,30.62,0,0,0,12.26-2.58c10.71-4.68,17-14.7,17-25.17V510.9C321.47,521.35,315.16,531.37,304.45,536.07Z"/></g>
  <g style="filter:url(#glow)">
    <g id="top" style="filter:url(#inset)"><path class="cls-3" d="M188.72,528.33c11.07,0,21.67,6,26.62,16.1,6.78,13.88.37,30.33-14.31,36.79l-53.19,23.23A30.59,30.59,0,0,1,135.57,607c-11.07,0-21.67-6-26.62-16.09-6.78-13.89-.37-30.33,14.32-36.79l53.19-23.23A30.6,30.6,0,0,1,188.72,528.33Z"/><path class="cls-4" d="M193.86,282.05c11.07,0,21.67,6,26.62,16.09,6.78,13.89.37,30.33-14.31,36.79L153,358.16a30.6,30.6,0,0,1-12.26,2.58c-11.07,0-21.66-6-26.61-16.08-6.79-13.88-.39-30.33,14.3-36.79l53.15-23.23A30.59,30.59,0,0,1,193.86,282.05Z"/><path class="cls-5" d="M293.26,360.69c11.07,0,21.67,6,26.62,16.09,6.78,13.89.37,30.33-14.31,36.79L148.94,482a30.61,30.61,0,0,1-12.26,2.58c-11.06-.11-21.67-6-26.61-16.17-6.78-13.89-.37-30.33,14.31-36.79L281,363.18A30.59,30.59,0,0,1,293.26,360.69Z"/><path class="cls-6" d="M366.9,101.09c76.9,0,150.47,41.45,184.83,111.81l1.34,2.73c47.11,96.45,2.58,210.73-99.39,255.26l-48.77,21.3a30.61,30.61,0,0,1-12.26,2.55c-11.06,0-21.65-6-26.6-16.08-6.8-13.88-.4-30.33,14.28-36.79l68-29.69c14.68-6.42,21.1-22.87,14.31-36.79-5-10.13-15.54-16.09-26.62-16.09a30.6,30.6,0,0,0-12.26,2.58L409,368.35a30.59,30.59,0,0,1-12.26,2.58c-11.07,0-21.67-6-26.62-16.09-6.78-13.89-.37-30.33,14.31-36.79l62-27.11c14.69-6.42,21.1-22.87,14.31-36.79-5-10.13-15.55-16.1-26.62-16.1a30.6,30.6,0,0,0-12.26,2.58L306.62,291a30.58,30.58,0,0,1-12.26,2.58c-11.06,0-21.66-6-26.6-16.08C261,263.6,267.36,247.15,282,240.7L350,211c14.7-6.42,21.1-22.88,14.31-36.79-4.94-10.13-15.54-16.09-26.61-16.09a30.59,30.59,0,0,0-12.26,2.58L154.15,235.58a30.6,30.6,0,0,1-12.26,2.58c-11.07,0-21.67-6-26.61-16.09-6.79-13.88-.38-30.33,14.31-36.79l152.16-66.43A212.58,212.58,0,0,1,366.9,101.09Z"/><path class="cls-7" d="M292.13,483.2c11.07,0,21.67,6,26.61,16.09,6.78,13.89.37,30.33-14.31,36.79a30.62,30.62,0,0,1-12.26,2.58c-11.07,0-21.67-6-26.61-16.09-6.78-13.89-.37-30.33,14.31-36.79A30.62,30.62,0,0,1,292.13,483.2Z"/></g>
    </g>
  </g>
  </g></g></g></svg>
